<svg t="1648314892082" class="icon" viewBox="0 0 1024 1024" version="1.1" xmlns="http://www.w3.org/2000/svg" p-id="1123" width="200" height="200"><path d="M567.68 863.086933c-40.695467 8.277333-81.399467 8.277333-122.094933 0 6.459733-52.4544 4.497067-101.4016-29.457067-143.931733 60.3392-18.2016 120.669867-18.2016 181.009067 0-33.9456 42.530133-35.9168 91.477333-29.457067 143.931733z" fill="#1C1E1A" p-id="1124"></path><path d="M567.8592 863.086933c-40.695467 8.277333-81.390933 8.277333-122.094933 0 6.459733-52.4544 4.497067-101.4016-29.457067-143.931733 60.3392-18.2016 120.669867-18.2016 181.009067 0-33.954133 42.530133-35.9168 91.477333-29.457067 143.931733z" fill="#242620" p-id="1125"></path><path d="M905.088 716.791467H108.1856c-15.5136 0-28.2112-12.6976-28.2112-28.2112V227.831467c0-15.5136 12.6976-28.2112 28.2112-28.2112h796.910933c15.5136 0 28.2112 12.6976 28.2112 28.2112v460.7488c-0.008533 15.5136-12.6976 28.2112-28.219733 28.2112z" fill="#D1D0D1" p-id="1126"></path><path d="M892.962133 706.107733H120.311467c-14.958933 0-27.1872-12.2368-27.1872-27.1872V237.499733c0-14.958933 12.2368-27.1872 27.1872-27.1872h772.650666c14.958933 0 27.1872 12.2368 27.1872 27.1872V678.912c0 14.958933-12.2368 27.195733-27.1872 27.195733z" fill="#242620" p-id="1127"></path><path d="M124.398933 239.744h764.475734v436.923733H124.398933z" fill="#46606F" p-id="1128"></path><path d="M878.907733 706.107733H126.4896c-14.5664 0-26.478933-11.912533-26.478933-26.478933V249.770667c0-14.5664 11.912533-26.478933 26.478933-26.478934h752.4096c14.5664 0 26.478933 11.912533 26.478933 26.478934v429.858133c0.008533 14.557867-11.904 26.478933-26.4704 26.478933z" fill="#FFFFFF" opacity=".1" p-id="1129"></path><path d="M807.534933 879.1552H205.738667c-7.7568 0-14.1056-6.3488-14.1056-14.1056s6.3488-14.1056 14.1056-14.1056h601.796266c7.7568 0 14.1056 6.3488 14.1056 14.1056s-6.3488 14.1056-14.1056 14.1056z" fill="#242620" p-id="1130"></path></svg>